<?xml version="1.0" encoding="UTF-8"?>
<svg id="Layer_1" data-name="Layer 1" xmlns="http://www.w3.org/2000/svg" viewBox="0 0 288 288">
  <defs>
    <style>
      .cls-1, .cls-2 {
        fill: #f7eff1;
      }

      .cls-2 {
        font-family: AMFuturismo-Regular, 'AM Futurismo';
        font-size: 60.26px;
      }
    </style>
  </defs>
  <path class="cls-1" d="M121.69,84.57h25.37c2.36,0,2.6,1.39.85,2.96l-11.78,10.51c-.66.54-.79,1.09-.42,1.75.36.6.91.91,1.63.66l4.77-1.39c.79-.24,1.33.18,1.33,1.03v14.26c0,.85-.54,1.27-1.33,1.03l-4.77-1.39c-.72-.24-1.63-.12-1.63.66v12.81c0,1.57-.85,2.42-2.42,2.42h-11.6c-1.57,0-2.42-.85-2.42-2.42v-40.48c0-1.57.85-2.42,2.42-2.42Z"/>
  <path class="cls-1" d="M154.5,84.57h25.37c2.36,0,2.6,1.39.85,2.96l-11.78,10.51c-.66.54-.79,1.09-.42,1.75.36.6.91.91,1.63.66l4.77-1.39c.79-.24,1.33.18,1.33,1.03v14.26c0,.85-.54,1.27-1.33,1.03l-4.77-1.39c-.72-.24-1.63-.12-1.63.66v12.81c0,1.57-.85,2.42-2.42,2.42h-11.6c-1.57,0-2.42-.85-2.42-2.42v-40.48c0-1.57.85-2.42,2.42-2.42Z"/>
  <path class="cls-1" d="M187.3,84.57h25.37c2.36,0,2.66,1.33.85,2.96l-11.24,10.15c-1.03.97-1.33,1.45-.97,2.11.36.6.91.91,1.99.6l4.41-1.33c.79-.24,1.33.18,1.33,1.03v14.26c0,.85-.54,1.27-1.33,1.03l-4.41-1.33c-1.09-.3-1.63-.06-1.99.6-.36.72-.06,1.15.97,2.11l11.24,10.15c1.81,1.63,1.51,2.96-.85,2.96h-25.37c-1.57,0-2.42-.85-2.42-2.42v-40.48c0-1.57.85-2.42,2.42-2.42Z"/>
  <path class="cls-1" d="M220.11,84.57h25.37c2.36,0,2.66,1.33.85,2.96l-11.24,10.15c-1.03.97-1.33,1.45-.97,2.11.36.6.91.91,1.99.6l4.41-1.33c.79-.24,1.33.18,1.33,1.03v14.26c0,.85-.54,1.27-1.33,1.03l-4.41-1.33c-1.09-.3-1.63-.06-1.99.6-.36.72-.06,1.15.97,2.11l11.24,10.15c1.81,1.63,1.51,2.96-.85,2.96h-25.37c-1.57,0-2.42-.85-2.42-2.42v-40.48c0-1.57.85-2.42,2.42-2.42Z"/>
  <path class="cls-1" d="M181.78,139.67h11.48c1.57,0,2.42.85,2.42,2.42v21.51c0,.79.42,1.21,1.21,1.21h6.77c.79,0,1.21-.42,1.21-1.21v-21.51c0-1.57.85-2.42,2.42-2.42h11.48c1.57,0,2.42.85,2.42,2.42v40.48c0,1.57-.85,2.42-2.42,2.42h-11.48c-1.57,0-2.42-.85-2.42-2.42v-12.08c0-.79-.42-1.21-1.21-1.21h-6.77c-.79,0-1.21.42-1.21,1.21v12.08c0,1.57-.85,2.42-2.42,2.42h-11.48c-1.57,0-2.42-.85-2.42-2.42v-40.48c0-1.57.85-2.42,2.42-2.42Z"/>
  <path class="cls-1" d="M140.09,139.82h-14.15s.01,30.86,0,31.1c-.01.25-.48.54-.74.54s-.74-.36-.74-.54c0-.24,0-31.1,0-31.1h-14.15c-1.57,0-2.42.85-2.42,2.42v26.16c0,9.61,7.79,17.34,17.34,17.34s17.28-7.73,17.28-17.34v-26.16c0-1.57-.85-2.42-2.42-2.42Z"/>
  <path class="cls-1" d="M170.42,145.47c.57-.52.6-1.13.08-1.7-1.83-2.05-4.36-3.48-7.29-3.92-6.87-1.05-13.27,3.66-14.31,10.47-.52,3.4.39,6.66,2.25,9.27.65.88.85,1.85.32,2.74"/>
  <path class="cls-1" d="M154.44,162.16l-9.74,9.01c-.49.48-.68.94-.52,1.58,1.56,6,6.98,10.95,13.45,11.84,8.32,1.14,16.61-4.62,17.75-13,.95-6.94-3.34-13.5-9.63-16.13-1.14-.52-1.69-1.17-1.54-1.92"/>
  <text class="cls-2" transform="translate(40.47 131.12) rotate(.33)"><tspan x="0" y="0">C</tspan></text>
  <path class="cls-1" d="M85.45,94.23c-7.18,9.41-6.85,21.66.63,27.64l26.37-34.58c-7.84-5.5-19.82-2.46-27,6.95Z"/>
  <path class="cls-1" d="M111.35,93l-26.45,34.52c7.83,5.52,19.82,2.51,27.02-6.89,7.2-9.4,6.9-21.65-.57-27.64Z"/>
  <path class="cls-1" d="M104.11,182.89l-6.34-13.23c-.3-.66-.18-1.15.36-1.63,3.56-2.96,5.8-7.43,5.8-12.38,0-8.82-7.13-16.01-15.95-16.01h-11.06c-1.57,0-2.42.85-2.42,2.42v41.69c0,.79.42,1.21,1.21,1.21h2.3c.79,0,1.21-.42,1.21-1.21v-9.67c0-.91.6-1.33,1.45-.85l21.39,11.6c1.81.97,2.96-.12,2.05-1.93ZM84.74,149.43c2.1-2.28,5.35-2.72,7.35-1.04l-7.79,8.45c-1.84-1.85-1.66-5.12.44-7.41ZM91.32,159.71c-2.2,2.39-5.53,2.9-7.53,1.21l8.12-8.81c1.86,1.85,1.61,5.22-.59,7.6Z"/>
</svg>