<?xml version="1.0" encoding="UTF-8"?>
<svg id="Layer_1" data-name="Layer 1" xmlns="http://www.w3.org/2000/svg" viewBox="0 0 496.51 288">
  <defs>
    <style>
      .cls-1 {
        fill: #f7eff1;
      }
    </style>
  </defs>
  <path class="cls-1" d="M115.47,116.76h30.8c2.86,0,3.15,1.69,1.03,3.59l-14.3,12.76c-.81.66-.95,1.32-.51,2.13.44.73,1.1,1.1,1.98.81l5.79-1.69c.95-.29,1.61.22,1.61,1.25v17.31c0,1.03-.66,1.54-1.61,1.25l-5.79-1.69c-.88-.29-1.98-.15-1.98.81v15.55c0,1.91-1.03,2.93-2.93,2.93h-14.08c-1.91,0-2.93-1.03-2.93-2.93v-49.14c0-1.91,1.03-2.93,2.93-2.93Z"/>
  <path class="cls-1" d="M155.29,116.76h30.8c2.86,0,3.15,1.69,1.03,3.59l-14.3,12.76c-.81.66-.95,1.32-.51,2.13.44.73,1.1,1.1,1.98.81l5.79-1.69c.95-.29,1.61.22,1.61,1.25v17.31c0,1.03-.66,1.54-1.61,1.25l-5.79-1.69c-.88-.29-1.98-.15-1.98.81v15.55c0,1.91-1.03,2.93-2.93,2.93h-14.08c-1.91,0-2.93-1.03-2.93-2.93v-49.14c0-1.91,1.03-2.93,2.93-2.93Z"/>
  <path class="cls-1" d="M195.12,116.76h30.8c2.86,0,3.23,1.61,1.03,3.59l-13.64,12.32c-1.25,1.17-1.61,1.76-1.17,2.57.44.73,1.1,1.1,2.42.73l5.35-1.61c.95-.29,1.61.22,1.61,1.25v17.31c0,1.03-.66,1.54-1.61,1.25l-5.35-1.61c-1.32-.37-1.98-.07-2.42.73-.44.88-.07,1.39,1.17,2.57l13.64,12.32c2.2,1.98,1.83,3.59-1.03,3.59h-30.8c-1.91,0-2.93-1.03-2.93-2.93v-49.14c0-1.91,1.03-2.93,2.93-2.93Z"/>
  <path class="cls-1" d="M234.94,116.76h30.8c2.86,0,3.23,1.61,1.03,3.59l-13.64,12.32c-1.25,1.17-1.61,1.76-1.17,2.57.44.73,1.1,1.1,2.42.73l5.35-1.61c.95-.29,1.61.22,1.61,1.25v17.31c0,1.03-.66,1.54-1.61,1.25l-5.35-1.61c-1.32-.37-1.98-.07-2.42.73-.44.88-.07,1.39,1.17,2.57l13.64,12.32c2.2,1.98,1.83,3.59-1.03,3.59h-30.8c-1.91,0-2.93-1.03-2.93-2.93v-49.14c0-1.91,1.03-2.93,2.93-2.93Z"/>
  <path class="cls-1" d="M426.54,116.76h13.93c1.91,0,2.93,1.03,2.93,2.93v26.11c0,.95.51,1.47,1.47,1.47h8.21c.95,0,1.47-.51,1.47-1.47v-26.11c0-1.91,1.03-2.93,2.93-2.93h13.93c1.91,0,2.93,1.03,2.93,2.93v49.14c0,1.91-1.03,2.93-2.93,2.93h-13.93c-1.91,0-2.93-1.03-2.93-2.93v-14.67c0-.95-.51-1.47-1.47-1.47h-8.21c-.95,0-1.47.51-1.47,1.47v14.67c0,1.91-1.03,2.93-2.93,2.93h-13.93c-1.91,0-2.93-1.03-2.93-2.93v-49.14c0-1.91,1.03-2.93,2.93-2.93Z"/>
  <path class="cls-1" d="M375.94,116.93h-17.18s.01,37.47,0,37.75c-.01.31-.59.66-.9.66s-.89-.44-.9-.66c-.01-.29,0-37.75,0-37.75h-17.17c-1.91,0-2.93,1.03-2.93,2.93v31.76c0,11.66,9.46,21.05,21.05,21.05s20.97-9.39,20.97-21.05v-31.76c0-1.91-1.03-2.93-2.93-2.93Z"/>
  <path class="cls-1" d="M412.75,123.79c.69-.64.73-1.37.09-2.06-2.22-2.49-5.29-4.22-8.84-4.76-8.34-1.27-16.11,4.44-17.37,12.71-.63,4.13.47,8.08,2.74,11.25.79,1.07,1.03,2.25.39,3.33"/>
  <path class="cls-1" d="M393.35,144.05l-11.83,10.93c-.6.58-.82,1.15-.63,1.91,1.89,7.29,8.47,13.3,16.32,14.37,10.1,1.38,20.16-5.61,21.55-15.78,1.15-8.43-4.05-16.39-11.69-19.58-1.38-.63-2.06-1.42-1.87-2.33"/>
  <path class="cls-1" d="M50.95,119.87c5.55.3,8.09,2.12,7.94,4.83-.35,6.43-20.01,6.9-20.89,23.04-.34,6.21,2.3,10.24,6.46,10.46,5.92.32,7.43-3.26,11.45-3.04,2.63.14,3.97,2.49,3.81,5.34-.47,8.69-9.72,15.73-21.33,15.1-12.64-.69-22.38-11.55-21.56-26.45.93-17.16,15.28-30.3,34.12-29.28Z"/>
  <path class="cls-1" d="M71.5,128.46c-8.74,11.41-8.37,26.28.69,33.55l32.1-41.91c-9.5-6.7-24.06-3.05-32.79,8.36Z"/>
  <path class="cls-1" d="M102.92,127l-32.1,41.91c9.5,6.7,24.06,3.05,32.79-8.36,8.74-11.41,8.37-26.28-.69-33.55Z"/>
  <path class="cls-1" d="M332.26,169.21l-7.7-16.06c-.37-.81-.22-1.39.44-1.98,4.33-3.59,7.04-9.02,7.04-15.03,0-10.71-8.65-19.43-19.36-19.43h-13.42c-1.91,0-2.93,1.03-2.93,2.93v50.6c0,.95.51,1.47,1.47,1.47h2.79c.95,0,1.47-.51,1.47-1.47v-11.73c0-1.1.73-1.61,1.76-1.03l25.96,14.08c2.2,1.17,3.59-.15,2.49-2.35ZM308.74,128.6c2.55-2.77,6.49-3.31,8.92-1.27l-9.45,10.26c-2.23-2.25-2.02-6.22.53-8.99ZM316.73,141.07c-2.67,2.9-6.71,3.52-9.14,1.46l9.85-10.69c2.25,2.25,1.96,6.33-.71,9.23Z"/>
</svg>