<svg width="35" height="35" viewBox="0 0 35 35" fill="none" xmlns="http://www.w3.org/2000/svg">
<path d="M17.2258 0C7.71234 0 0 7.71234 0 17.2258C0 25.304 5.56187 32.0827 13.0647 33.9445V22.49H9.51278V17.2258H13.0647V14.9575C13.0647 9.09454 15.7182 6.37699 21.4744 6.37699C22.5658 6.37699 24.4489 6.59128 25.2193 6.80488V11.5764C24.8127 11.5337 24.1065 11.5124 23.2293 11.5124C20.405 11.5124 19.3136 12.5824 19.3136 15.364V17.2258H24.9402L23.9735 22.49H19.3136V34.3255C27.8431 33.2954 34.4523 26.033 34.4523 17.2258C34.4516 7.71234 26.7393 0 17.2258 0Z" fill="white"/>
</svg>
