<svg width="35" height="35" viewBox="0 0 35 35" fill="none" xmlns="http://www.w3.org/2000/svg">
<g clip-path="url(#clip0_141_251)">
<path d="M17.2258 3.10199C21.8283 3.10199 22.3734 3.12218 24.1834 3.20292C25.8656 3.27694 26.774 3.55955 27.3796 3.79506C28.1803 4.10459 28.759 4.4814 29.3579 5.08027C29.9635 5.68586 30.3336 6.25781 30.6431 7.05854C30.8786 7.66414 31.1612 8.57926 31.2352 10.2547C31.316 12.0715 31.3362 12.6166 31.3362 17.2123C31.3362 21.8149 31.316 22.3599 31.2352 24.17C31.1612 25.8522 30.8786 26.7606 30.6431 27.3662C30.3336 28.1669 29.9568 28.7456 29.3579 29.3444C28.7523 29.95 28.1803 30.3201 27.3796 30.6296C26.774 30.8651 25.8589 31.1478 24.1834 31.2218C22.3666 31.3025 21.8216 31.3227 17.2258 31.3227C12.6233 31.3227 12.0783 31.3025 10.2682 31.2218C8.58599 31.1478 7.6776 30.8651 7.072 30.6296C6.27127 30.3201 5.69259 29.9433 5.09372 29.3444C4.48813 28.7388 4.11804 28.1669 3.80852 27.3662C3.57301 26.7606 3.2904 25.8454 3.21638 24.17C3.13564 22.3532 3.11545 21.8081 3.11545 17.2123C3.11545 12.6098 3.13564 12.0648 3.21638 10.2547C3.2904 8.57253 3.57301 7.66414 3.80852 7.05854C4.11804 6.25781 4.49486 5.67913 5.09372 5.08027C5.69932 4.47467 6.27127 4.10459 7.072 3.79506C7.6776 3.55955 8.59272 3.27694 10.2682 3.20292C12.0783 3.12218 12.6233 3.10199 17.2258 3.10199ZM17.2258 0C12.5493 0 11.9639 0.0201865 10.1269 0.100932C8.29665 0.181678 7.03836 0.477747 5.94829 0.901663C4.81111 1.34577 3.84889 1.93117 2.8934 2.8934C1.93117 3.84889 1.34577 4.81111 0.901663 5.94156C0.477747 7.03836 0.181678 8.28992 0.100932 10.1202C0.0201865 11.9639 0 12.5493 0 17.2258C0 21.9023 0.0201865 22.4878 0.100932 24.3247C0.181678 26.155 0.477747 27.4133 0.901663 28.5033C1.34577 29.6405 1.93117 30.6027 2.8934 31.5582C3.84889 32.5137 4.81111 33.1058 5.94156 33.5432C7.03836 33.9671 8.28992 34.2632 10.1202 34.3439C11.9571 34.4247 12.5425 34.4449 17.2191 34.4449C21.8956 34.4449 22.481 34.4247 24.318 34.3439C26.1482 34.2632 27.4065 33.9671 28.4966 33.5432C29.627 33.1058 30.5893 32.5137 31.5448 31.5582C32.5003 30.6027 33.0924 29.6405 33.5298 28.5101C33.9537 27.4133 34.2497 26.1617 34.3305 24.3315C34.4112 22.4945 34.4314 21.9091 34.4314 17.2325C34.4314 12.556 34.4112 11.9706 34.3305 10.1336C34.2497 8.30338 33.9537 7.04509 33.5298 5.95501C33.1058 4.81111 32.5204 3.84889 31.5582 2.8934C30.6027 1.9379 29.6405 1.34577 28.5101 0.908392C27.4133 0.484476 26.1617 0.188407 24.3315 0.107661C22.4878 0.0201865 21.9023 0 17.2258 0Z" fill="white"/>
<path d="M17.2259 8.37744C12.3407 8.37744 8.37744 12.3407 8.37744 17.2259C8.37744 22.111 12.3407 26.0743 17.2259 26.0743C22.111 26.0743 26.0743 22.111 26.0743 17.2259C26.0743 12.3407 22.111 8.37744 17.2259 8.37744ZM17.2259 22.9655C14.0566 22.9655 11.4862 20.3951 11.4862 17.2259C11.4862 14.0566 14.0566 11.4862 17.2259 11.4862C20.3951 11.4862 22.9655 14.0566 22.9655 17.2259C22.9655 20.3951 20.3951 22.9655 17.2259 22.9655Z" fill="white"/>
<path d="M28.4899 8.02767C28.4899 9.17157 27.5613 10.0934 26.4241 10.0934C25.2802 10.0934 24.3584 9.16484 24.3584 8.02767C24.3584 6.88377 25.287 5.96191 26.4241 5.96191C27.5613 5.96191 28.4899 6.89049 28.4899 8.02767Z" fill="white"/>
</g>
<defs>
<clipPath id="clip0_141_251">
<rect width="34.4516" height="34.4516" fill="white"/>
</clipPath>
</defs>
</svg>
