<?xml version="1.0" encoding="UTF-8"?>
<svg id="Layer_1" data-name="Layer 1" xmlns="http://www.w3.org/2000/svg" viewBox="0 0 1920 1138.47">
  <defs>
    <style>
      .cls-1 {
        fill: #f7eff1;
      }
    </style>
  </defs>
  <g>
    <path class="cls-1" d="M68.27,58.77c-34.13,44.56-32.71,102.65,2.7,131.05L196.37,26.12C159.24-.04,102.4,14.22,68.27,58.77Z"/>
    <path class="cls-1" d="M191,53.06l-125.4,163.7c37.12,26.16,93.97,11.9,128.1-32.65,34.13-44.56,32.71-102.65-2.7-131.05Z"/>
  </g>
  <g>
    <path class="cls-1" d="M482.77,58.77c-34.13,44.56-32.71,102.65,2.7,131.05l125.4-163.7C573.75-.04,516.91,14.22,482.77,58.77Z"/>
    <path class="cls-1" d="M605.51,53.06l-125.4,163.7c37.12,26.16,93.97,11.9,128.1-32.65,34.13-44.56,32.71-102.65-2.7-131.05Z"/>
  </g>
  <g>
    <path class="cls-1" d="M897.28,58.77c-34.13,44.56-32.71,102.65,2.7,131.05l125.4-163.7c-37.12-26.16-93.97-11.9-128.1,32.65Z"/>
    <path class="cls-1" d="M1020.02,53.06l-125.4,163.7c37.12,26.16,93.97,11.9,128.1-32.65,34.13-44.56,32.71-102.65-2.7-131.05Z"/>
  </g>
  <g>
    <path class="cls-1" d="M1313.87,58.77c-34.13,44.56-32.71,102.65,2.7,131.05l125.4-163.7c-37.12-26.16-93.97-11.9-128.1,32.65Z"/>
    <path class="cls-1" d="M1436.61,53.06l-125.4,163.7c37.12,26.16,93.97,11.9,128.1-32.65,34.13-44.56,32.71-102.65-2.7-131.05Z"/>
  </g>
  <g>
    <path class="cls-1" d="M1703.91,58.77c-34.13,44.56-32.71,102.65,2.7,131.05l125.4-163.7c-37.12-26.16-93.97-11.9-128.1,32.65Z"/>
    <path class="cls-1" d="M1826.64,53.06l-125.4,163.7c37.12,26.16,93.97,11.9,128.1-32.65,34.13-44.56,32.71-102.65-2.7-131.05Z"/>
  </g>
  <g>
    <path class="cls-1" d="M253.99,368.95c-34.13,44.56-32.71,102.65,2.7,131.05l125.4-163.7c-37.12-26.16-93.97-11.9-128.1,32.65Z"/>
    <path class="cls-1" d="M376.72,363.23l-125.4,163.7c37.12,26.16,93.97,11.9,128.1-32.65,34.13-44.56,32.71-102.65-2.7-131.05Z"/>
  </g>
  <g>
    <path class="cls-1" d="M668.5,368.95c-34.13,44.56-32.71,102.65,2.7,131.05l125.4-163.7c-37.12-26.16-93.97-11.9-128.1,32.65Z"/>
    <path class="cls-1" d="M791.23,363.23l-125.4,163.7c37.12,26.16,93.97,11.9,128.1-32.65,34.13-44.56,32.71-102.65-2.7-131.05Z"/>
  </g>
  <g>
    <path class="cls-1" d="M1083.01,368.95c-34.13,44.56-32.71,102.65,2.7,131.05l125.4-163.7c-37.12-26.16-93.97-11.9-128.1,32.65Z"/>
    <path class="cls-1" d="M1205.74,363.23l-125.4,163.7c37.12,26.16,93.97,11.9,128.1-32.65,34.13-44.56,32.71-102.65-2.7-131.05Z"/>
  </g>
  <g>
    <path class="cls-1" d="M1499.59,368.95c-34.13,44.56-32.71,102.65,2.7,131.05l125.4-163.7c-37.12-26.16-93.97-11.9-128.1,32.65Z"/>
    <path class="cls-1" d="M1622.33,363.23l-125.4,163.7c37.12,26.16,93.97,11.9,128.1-32.65,34.13-44.56,32.71-102.65-2.7-131.05Z"/>
  </g>
  <g>
    <path class="cls-1" d="M46.18,635.98c-34.13,44.56-32.71,102.65,2.7,131.05l125.4-163.7c-37.12-26.16-93.97-11.9-128.1,32.65Z"/>
    <path class="cls-1" d="M168.92,630.26l-125.4,163.7c37.12,26.16,93.97,11.9,128.1-32.65,34.13-44.56,32.71-102.65-2.7-131.05Z"/>
  </g>
  <g>
    <path class="cls-1" d="M460.69,635.98c-34.13,44.56-32.71,102.65,2.7,131.05l125.4-163.7c-37.12-26.16-93.97-11.9-128.1,32.65Z"/>
    <path class="cls-1" d="M583.43,630.26l-125.4,163.7c37.12,26.16,93.97,11.9,128.1-32.65,34.13-44.56,32.71-102.65-2.7-131.05Z"/>
  </g>
  <g>
    <path class="cls-1" d="M875.2,635.98c-34.13,44.56-32.71,102.65,2.7,131.05l125.4-163.7c-37.12-26.16-93.97-11.9-128.1,32.65Z"/>
    <path class="cls-1" d="M997.93,630.26l-125.4,163.7c37.12,26.16,93.97,11.9,128.1-32.65,34.13-44.56,32.71-102.65-2.7-131.05Z"/>
  </g>
  <g>
    <path class="cls-1" d="M1291.79,635.98c-34.13,44.56-32.71,102.65,2.7,131.05l125.4-163.7c-37.12-26.16-93.97-11.9-128.1,32.65Z"/>
    <path class="cls-1" d="M1414.52,630.26l-125.4,163.7c37.12,26.16,93.97,11.9,128.1-32.65,34.13-44.56,32.71-102.65-2.7-131.05Z"/>
  </g>
  <g>
    <path class="cls-1" d="M1681.82,635.98c-34.13,44.56-32.71,102.65,2.7,131.05l125.4-163.7c-37.12-26.16-93.97-11.9-128.1,32.65Z"/>
    <path class="cls-1" d="M1804.56,630.26l-125.4,163.7c37.12,26.16,93.97,11.9,128.1-32.65,34.13-44.56,32.71-102.65-2.7-131.05Z"/>
  </g>
  <g>
    <path class="cls-1" d="M231.91,946.15c-34.13,44.56-32.71,102.65,2.7,131.05l125.4-163.7c-37.12-26.16-93.97-11.9-128.1,32.65Z"/>
    <path class="cls-1" d="M354.64,940.44l-125.4,163.7c37.12,26.16,93.97,11.9,128.1-32.65,34.13-44.56,32.71-102.65-2.7-131.05Z"/>
  </g>
  <g>
    <path class="cls-1" d="M646.41,946.15c-34.13,44.56-32.71,102.65,2.7,131.05l125.4-163.7c-37.12-26.16-93.97-11.9-128.1,32.65Z"/>
    <path class="cls-1" d="M769.15,940.44l-125.4,163.7c37.12,26.16,93.97,11.9,128.1-32.65,34.13-44.56,32.71-102.65-2.7-131.05Z"/>
  </g>
  <g>
    <path class="cls-1" d="M1060.92,946.15c-34.13,44.56-32.71,102.65,2.7,131.05l125.4-163.7c-37.12-26.16-93.97-11.9-128.1,32.65Z"/>
    <path class="cls-1" d="M1183.66,940.44l-125.4,163.7c37.12,26.16,93.97,11.9,128.1-32.65,34.13-44.56,32.71-102.65-2.7-131.05Z"/>
  </g>
  <g>
    <path class="cls-1" d="M1477.51,946.15c-34.13,44.56-32.71,102.65,2.7,131.05l125.4-163.7c-37.12-26.16-93.97-11.9-128.1,32.65Z"/>
    <path class="cls-1" d="M1600.25,940.44l-125.4,163.7c37.12,26.16,93.97,11.9,128.1-32.65,34.13-44.56,32.71-102.65-2.7-131.05Z"/>
  </g>
</svg>